<svg xmlns="http://www.w3.org/2000/svg" viewBox="0 0 200 200" fill="none">
  <!-- Outer ring -->
  <circle cx="100" cy="100" r="95" stroke="#78716c" stroke-width="2" fill="none"/>
  <circle cx="100" cy="100" r="87" stroke="#a8a29e" stroke-width="1" fill="none"/>

  <!-- Inner circle background -->
  <circle cx="100" cy="100" r="82" fill="#faf8f5"/>

  <!-- Laurel wreath left -->
  <path d="M45 100 Q50 80 60 70 Q55 85 55 100 Q55 115 60 130 Q50 120 45 100" fill="#78716c" opacity="0.7"/>
  <path d="M50 100 Q55 85 62 78 Q58 90 58 100 Q58 110 62 122 Q55 115 50 100" fill="#a8a29e" opacity="0.5"/>

  <!-- Laurel wreath right -->
  <path d="M155 100 Q150 80 140 70 Q145 85 145 100 Q145 115 140 130 Q150 120 155 100" fill="#78716c" opacity="0.7"/>
  <path d="M150 100 Q145 85 138 78 Q142 90 142 100 Q142 110 138 122 Q145 115 150 100" fill="#a8a29e" opacity="0.5"/>

  <!-- Central P emblem -->
  <text x="100" y="118" font-family="Georgia, serif" font-size="72" font-weight="bold" fill="#44403c" text-anchor="middle">P</text>

  <!-- Text around the seal -->
  <defs>
    <path id="topArc" d="M 35 100 A 65 65 0 0 1 165 100"/>
    <path id="bottomArc" d="M 165 100 A 65 65 0 0 1 35 100"/>
  </defs>

  <text fill="#78716c" font-family="Georgia, serif" font-size="11" letter-spacing="3" font-weight="600">
    <textPath href="#topArc" startOffset="50%" text-anchor="middle">PRESIDIA</textPath>
  </text>
  <text fill="#78716c" font-family="Georgia, serif" font-size="8" letter-spacing="2">
    <textPath href="#bottomArc" startOffset="50%" text-anchor="middle">DAILY INTELLIGENCE</textPath>
  </text>
</svg>
